<svg width="48" height="48" viewBox="0 0 48 48" fill="none" xmlns="http://www.w3.org/2000/svg">
  <style>
    path {
      fill: black;
    }

    @media (prefers-color-scheme: dark) {
      path {
        fill: white;
      }
    }
  </style>
  <path
    d="M33.9889 38.0424H33.426C33.426 38.0364 33.4232 38.0304 33.422 38.0248L33.4066 37.9559C33.3967 37.9106 33.3861 37.8657 33.375 37.8212C33.3703 37.8002 33.3652 37.7793 33.36 37.7583C33.3454 37.6996 33.33 37.6408 33.3142 37.582L33.3095 37.5652C33.2921 37.5016 33.274 37.4382 33.255 37.3751L33.2361 37.3141C33.2231 37.2707 33.2092 37.2276 33.1966 37.1846C33.1891 37.161 33.1812 37.1378 33.1737 37.1146C33.1599 37.0731 33.1457 37.0315 33.1311 36.9904C33.1236 36.9687 33.1157 36.9466 33.1082 36.9252C33.0898 36.8736 33.0708 36.8223 33.0513 36.7714C33.047 36.7606 33.0434 36.7501 33.0391 36.7392C33.0162 36.6794 32.9921 36.6199 32.9677 36.5604C32.959 36.5387 32.9499 36.5173 32.9408 36.496C32.9242 36.4586 32.9077 36.4174 32.8907 36.3785L32.8587 36.3062C32.8421 36.2688 32.8252 36.2314 32.8078 36.194C32.7971 36.1708 32.7861 36.1472 32.775 36.124C32.7549 36.081 32.7355 36.0383 32.713 35.996C32.7048 35.9799 32.6973 35.9634 32.689 35.947C32.6609 35.8912 32.6321 35.8347 32.6029 35.7808L32.5634 35.7108L32.5078 35.6094L32.4643 35.5346C32.4462 35.5031 32.428 35.4717 32.4095 35.4402C32.3949 35.4148 32.3799 35.3893 32.3649 35.3654C32.3443 35.3313 32.3254 35.298 32.3029 35.2644L32.2461 35.173C32.2192 35.1311 32.1924 35.0888 32.1647 35.0473C32.1474 35.0211 32.13 34.9953 32.1122 34.9694C32.0945 34.9436 32.0751 34.9141 32.0562 34.8867C32.0372 34.8594 32.0167 34.8321 31.9993 34.8052C31.982 34.7782 31.963 34.7539 31.9445 34.7303C31.9259 34.7067 31.905 34.6753 31.8849 34.648L31.8292 34.5731C31.7897 34.5234 31.7534 34.4736 31.7147 34.4234L31.6606 34.3549C31.6377 34.3261 31.6141 34.2977 31.5908 34.2692L31.5387 34.2064C31.5146 34.1775 31.4901 34.1491 31.4656 34.1203L31.4143 34.0612L31.3377 33.9743L31.2923 33.9242C31.198 33.8205 31.1013 33.7184 31.0022 33.6188L30.9588 33.575L30.868 33.4863L30.8234 33.4437C30.7918 33.4133 30.7602 33.3834 30.7282 33.3538L30.6955 33.3239C30.5838 33.221 30.4689 33.1207 30.352 33.0245L30.3201 32.9979C30.284 32.968 30.2477 32.9384 30.2111 32.9092L30.1748 32.88C30.1353 32.8501 30.0994 32.8205 30.0611 32.791L30.0418 32.7764C29.9127 32.6776 29.7804 32.5814 29.647 32.489L29.6285 32.4759C29.5862 32.447 29.544 32.4186 29.5014 32.3905L29.4733 32.3722C29.4299 32.3434 29.3861 32.3153 29.3423 32.2872L29.3348 32.2828C29.1895 32.1907 29.0415 32.1025 28.8907 32.0182L28.8848 32.0144C28.837 31.9879 28.7892 31.962 28.7415 31.9362L28.7205 31.925C28.4663 31.789 28.2053 31.6643 27.9374 31.5507L27.9208 31.5436C27.8501 31.5137 27.7791 31.4849 27.7072 31.4564H29.12C29.3502 31.4564 29.5369 31.2053 29.5369 30.8951C29.5369 30.5848 29.3502 30.3337 29.12 30.3337H28.6992C28.7253 30.2708 28.7541 30.1997 28.7853 30.1196C29.1832 29.8846 29.8835 29.3839 30.5782 28.464L30.5838 28.4569C30.6364 28.388 30.6881 28.3168 30.7389 28.2432L30.7492 28.2286C30.7997 28.1563 30.8502 28.0819 30.9 28.004L30.9134 27.9834C30.9371 27.946 30.9607 27.9086 30.9844 27.8712C30.9844 27.8712 30.9844 27.8682 30.9872 27.8663C31.0117 27.8289 31.0358 27.7877 31.0598 27.7477L31.0752 27.7218C31.0958 27.6874 31.1167 27.6522 31.1368 27.6167C31.1408 27.6103 31.1447 27.604 31.1483 27.5972C31.1715 27.5568 31.1948 27.5156 31.2177 27.4741L31.2335 27.4453C31.2525 27.4108 31.271 27.376 31.2896 27.3409C31.2951 27.3311 31.3006 27.321 31.3058 27.3109C31.3279 27.2686 31.35 27.226 31.3721 27.1826L31.3875 27.1522C31.4048 27.1171 31.4226 27.0811 31.44 27.0452L31.4589 27.0078C31.4802 26.9636 31.5012 26.9187 31.5221 26.8734L31.5351 26.8446C31.5525 26.8072 31.5695 26.7698 31.5864 26.7323L31.6066 26.6874C31.6263 26.6421 31.646 26.5965 31.665 26.5505C31.6685 26.5422 31.6721 26.5336 31.6752 26.5254C31.693 26.4831 31.7104 26.4401 31.7277 26.3966L31.7475 26.3472C31.7637 26.3061 31.7799 26.2645 31.7956 26.223L31.8075 26.1916C31.826 26.1422 31.8442 26.0916 31.8624 26.0419L31.8813 25.9887C31.8955 25.9491 31.9093 25.9086 31.9231 25.8682C31.9283 25.8532 31.9334 25.8383 31.9381 25.8233C31.9555 25.7717 31.9729 25.7189 31.9899 25.6661C31.9954 25.6478 32.0013 25.6287 32.0068 25.6115L32.0463 25.4884C32.0514 25.4704 32.057 25.4509 32.0621 25.4348C32.0783 25.3806 32.0945 25.3252 32.1099 25.2694C32.115 25.2518 32.1197 25.2339 32.1245 25.2159C32.1363 25.1729 32.1482 25.1298 32.1596 25.086C32.1647 25.0662 32.1699 25.0464 32.1754 25.0265C32.19 24.9689 32.2046 24.9109 32.2188 24.8521L32.2307 24.8031C32.2417 24.7563 32.2528 24.7092 32.2634 24.6617L32.2776 24.598C32.2911 24.537 32.3045 24.476 32.3171 24.4139C32.3199 24.4019 32.3222 24.3896 32.3246 24.3765C32.3357 24.323 32.3463 24.2687 32.3566 24.2144C32.3609 24.1924 32.3649 24.1703 32.3692 24.1482C32.3795 24.0924 32.3893 24.0359 32.3992 23.9802C32.4012 23.9682 32.4036 23.9566 32.4055 23.945C32.4166 23.8791 32.4274 23.8127 32.4379 23.7459C32.4415 23.7234 32.445 23.701 32.4482 23.6781C32.4565 23.6239 32.4644 23.5692 32.4722 23.5138L32.4793 23.463C32.4888 23.3941 32.4979 23.3249 32.5066 23.2545C32.5094 23.2324 32.5117 23.2103 32.5145 23.1879C32.5213 23.132 32.5276 23.0759 32.5334 23.0195C32.5358 22.9993 32.5382 22.9794 32.5401 22.9592C32.5478 22.8869 32.5549 22.8139 32.5615 22.7403C32.5615 22.7197 32.565 22.6991 32.5666 22.6782C32.5717 22.619 32.5769 22.5595 32.5812 22.4996C32.5812 22.4776 32.5847 22.4555 32.5863 22.4334C32.5919 22.3571 32.597 22.2802 32.6017 22.2029C32.6017 22.1853 32.6017 22.1654 32.6045 22.1497C32.608 22.0854 32.6116 22.0206 32.6144 21.9555C32.6144 21.9319 32.6144 21.9083 32.6175 21.8848C32.6207 21.8043 32.6238 21.7235 32.6262 21.6415C32.6262 21.6303 32.6262 21.6187 32.6262 21.6071C32.6283 21.5342 32.6299 21.4606 32.6309 21.3863C32.6309 21.3619 32.6309 21.3376 32.6309 21.3133C32.6309 21.2335 32.6309 21.1531 32.6309 21.0723V21.0536C32.6309 20.9675 32.6309 20.8803 32.6309 20.7916V20.7168C32.6309 20.6419 32.6278 20.5633 32.6258 20.4855V20.4432C32.623 20.3534 32.6195 20.2624 32.6159 20.1711C32.6159 20.1475 32.6136 20.1236 32.6128 20.1C32.6094 20.0232 32.6054 19.9458 32.6009 19.868C32.6009 19.8489 32.6009 19.8305 32.5978 19.81C32.5922 19.7164 32.5862 19.6221 32.5796 19.527L32.5749 19.4608C32.569 19.3814 32.563 19.3017 32.5563 19.2213C32.5563 19.1981 32.5528 19.1749 32.5508 19.1517C32.5425 19.0544 32.5334 18.9559 32.524 18.8571C32.524 18.8384 32.52 18.8197 32.5184 18.8006C32.5101 18.7164 32.5011 18.6315 32.492 18.5458C32.4892 18.5199 32.4865 18.4945 32.4833 18.4687C32.4722 18.3669 32.4604 18.2647 32.4478 18.161C32.4478 18.1483 32.4442 18.1356 32.4426 18.1236C32.4313 18.0308 32.4193 17.9375 32.4067 17.8437C32.4028 17.816 32.3992 17.7883 32.3953 17.7606C32.3805 17.6543 32.3654 17.5472 32.3499 17.4391C30.7709 6.78291 19.5813 8.51229 19.5813 8.51229L19.9397 10.8019L13.1725 17.5795L13.4682 20.1966L16.0317 21.6935C16.146 21.4181 16.2927 21.1559 16.4691 20.9117C18.1231 19.103 21.332 17.6831 22.2506 17.3886C22.4346 17.3298 22.5392 17.3003 22.5392 17.3003C18.1452 22.6916 18.645 28.8682 18.8408 30.3404C18.6371 30.3779 18.4796 30.611 18.4796 30.8954C18.4796 31.2053 18.6663 31.4568 18.8964 31.4568H20.3092C17.9595 32.3893 16.0944 34.1652 15.121 36.3968C15.1199 36.3999 15.1186 36.4029 15.1171 36.4058C15.0452 36.5715 14.9784 36.7395 14.9166 36.9099C14.9167 36.9116 14.9167 36.9134 14.9166 36.9151C14.9 36.9615 14.8838 37.008 14.868 37.0547C14.8621 37.0716 14.8562 37.0884 14.8506 37.1056C14.8364 37.1475 14.8233 37.1898 14.8112 37.2325C14.804 37.2542 14.7973 37.2763 14.7906 37.298C14.778 37.338 14.7658 37.3785 14.7539 37.4189L14.7326 37.4937C14.7215 37.5311 14.7105 37.5712 14.7002 37.6101C14.6927 37.6378 14.6856 37.6651 14.6785 37.6928C14.669 37.7302 14.6592 37.7677 14.6501 37.8051C14.641 37.8425 14.6323 37.8799 14.6236 37.9196C14.615 37.9593 14.6039 38.0057 14.5944 38.0491H14.0311C13.9228 38.0468 13.8151 38.0651 13.7143 38.1028C13.6136 38.1406 13.5217 38.197 13.4443 38.2689C13.3668 38.3407 13.3053 38.4265 13.2633 38.5211C13.2213 38.6158 13.1996 38.7175 13.1996 38.8202C13.1996 38.9229 13.2213 39.0246 13.2633 39.1193C13.3053 39.214 13.3668 39.2998 13.4443 39.3716C13.5217 39.4434 13.6136 39.4999 13.7143 39.5376C13.8151 39.5753 13.9228 39.5936 14.0311 39.5914H33.996C34.1043 39.5936 34.212 39.5753 34.3128 39.5376C34.4136 39.4999 34.5054 39.4434 34.5828 39.3716C34.6603 39.2998 34.7218 39.214 34.7638 39.1193C34.8058 39.0246 34.8275 38.9229 34.8275 38.8202C34.8275 38.7175 34.8058 38.6158 34.7638 38.5211C34.7218 38.4265 34.6603 38.3407 34.5828 38.2689C34.5054 38.197 34.4136 38.1406 34.3128 38.1028C34.212 38.0651 34.1043 38.0468 33.996 38.0491L33.9889 38.0424Z" />
</svg>